<mxfile host="app.diagrams.net" agent="Mozilla/5.0 (Windows NT 10.0; Win64; x64) AppleWebKit/537.36 (KHTML, like Gecko) Chrome/128.0.0.0 Safari/537.36" version="24.7.16">
  <diagram name="Page-1" id="13e1069c-82ec-6db2-03f1-153e76fe0fe0">
    <mxGraphModel grid="0" page="1" gridSize="10" guides="1" tooltips="1" connect="1" arrows="1" fold="1" pageScale="1" pageWidth="1100" pageHeight="850" background="none" math="0" shadow="0">
      <root>
        <mxCell id="0" />
        <mxCell id="1" parent="0" />
        <mxCell id="7baba1c4bc27f4b0-2" value="Blog Post Display page" style="shape=umlLifeline;perimeter=lifelinePerimeter;whiteSpace=wrap;html=1;container=1;collapsible=0;recursiveResize=0;outlineConnect=0;rounded=1;shadow=0;comic=0;labelBackgroundColor=none;strokeWidth=1;fontFamily=Verdana;fontSize=12;align=center;" vertex="1" parent="1">
          <mxGeometry x="240" y="80" width="100" height="775" as="geometry" />
        </mxCell>
        <mxCell id="7baba1c4bc27f4b0-3" value="Password Reset Form" style="shape=umlLifeline;perimeter=lifelinePerimeter;whiteSpace=wrap;html=1;container=1;collapsible=0;recursiveResize=0;outlineConnect=0;rounded=1;shadow=0;comic=0;labelBackgroundColor=none;strokeWidth=1;fontFamily=Verdana;fontSize=12;align=center;" vertex="1" parent="1">
          <mxGeometry x="400" y="80" width="100" height="777" as="geometry" />
        </mxCell>
        <mxCell id="7baba1c4bc27f4b0-13" value="" style="html=1;points=[];perimeter=orthogonalPerimeter;rounded=0;shadow=0;comic=0;labelBackgroundColor=none;strokeWidth=1;fontFamily=Verdana;fontSize=12;align=center;" vertex="1" parent="7baba1c4bc27f4b0-3">
          <mxGeometry x="47" y="276" width="10" height="200" as="geometry" />
        </mxCell>
        <mxCell id="7baba1c4bc27f4b0-4" value="Change Password Form" style="shape=umlLifeline;perimeter=lifelinePerimeter;whiteSpace=wrap;html=1;container=1;collapsible=0;recursiveResize=0;outlineConnect=0;rounded=1;shadow=0;comic=0;labelBackgroundColor=none;strokeWidth=1;fontFamily=Verdana;fontSize=12;align=center;" vertex="1" parent="1">
          <mxGeometry x="540" y="80" width="100" height="762" as="geometry" />
        </mxCell>
        <mxCell id="7baba1c4bc27f4b0-5" value="Blog Post&lt;div&gt;Controller&lt;br&gt;&lt;/div&gt;" style="shape=umlLifeline;perimeter=lifelinePerimeter;whiteSpace=wrap;html=1;container=1;collapsible=0;recursiveResize=0;outlineConnect=0;rounded=1;shadow=0;comic=0;labelBackgroundColor=none;strokeWidth=1;fontFamily=Verdana;fontSize=12;align=center;" vertex="1" parent="1">
          <mxGeometry x="680" y="80" width="100" height="756" as="geometry" />
        </mxCell>
        <mxCell id="7baba1c4bc27f4b0-6" value="Password Controller" style="shape=umlLifeline;perimeter=lifelinePerimeter;whiteSpace=wrap;html=1;container=1;collapsible=0;recursiveResize=0;outlineConnect=0;rounded=1;shadow=0;comic=0;labelBackgroundColor=none;strokeWidth=1;fontFamily=Verdana;fontSize=12;align=center;" vertex="1" parent="1">
          <mxGeometry x="820" y="80" width="100" height="861" as="geometry" />
        </mxCell>
        <mxCell id="7baba1c4bc27f4b0-28" value="" style="html=1;points=[];perimeter=orthogonalPerimeter;rounded=0;shadow=0;comic=0;labelBackgroundColor=none;strokeWidth=1;fontFamily=Verdana;fontSize=12;align=center;" vertex="1" parent="7baba1c4bc27f4b0-6">
          <mxGeometry x="45" y="300" width="10" height="152" as="geometry" />
        </mxCell>
        <mxCell id="M-AJhfs6bhue7CbsX_gP-45" value="" style="html=1;points=[];perimeter=orthogonalPerimeter;rounded=0;shadow=0;comic=0;labelBackgroundColor=none;strokeWidth=1;fontFamily=Verdana;fontSize=12;align=center;" vertex="1" parent="7baba1c4bc27f4b0-6">
          <mxGeometry x="45" y="511" width="10" height="152" as="geometry" />
        </mxCell>
        <mxCell id="7baba1c4bc27f4b0-7" value="User" style="shape=umlLifeline;perimeter=lifelinePerimeter;whiteSpace=wrap;html=1;container=1;collapsible=0;recursiveResize=0;outlineConnect=0;rounded=1;shadow=0;comic=0;labelBackgroundColor=none;strokeWidth=1;fontFamily=Verdana;fontSize=12;align=center;" vertex="1" parent="1">
          <mxGeometry x="960" y="80" width="100" height="743" as="geometry" />
        </mxCell>
        <mxCell id="M-AJhfs6bhue7CbsX_gP-37" value="Update Password" style="text;html=1;align=center;verticalAlign=middle;resizable=0;points=[];autosize=1;strokeColor=none;fillColor=none;" vertex="1" parent="7baba1c4bc27f4b0-7">
          <mxGeometry x="-85" y="345" width="113" height="26" as="geometry" />
        </mxCell>
        <mxCell id="7baba1c4bc27f4b0-8" value="Blog Post form" style="shape=umlLifeline;perimeter=lifelinePerimeter;whiteSpace=wrap;html=1;container=1;collapsible=0;recursiveResize=0;outlineConnect=0;rounded=1;shadow=0;comic=0;labelBackgroundColor=none;strokeWidth=1;fontFamily=Verdana;fontSize=12;align=center;" vertex="1" parent="1">
          <mxGeometry x="100" y="80" width="100" height="762" as="geometry" />
        </mxCell>
        <mxCell id="M-AJhfs6bhue7CbsX_gP-2" style="edgeStyle=orthogonalEdgeStyle;rounded=0;orthogonalLoop=1;jettySize=auto;html=1;" edge="1" parent="7baba1c4bc27f4b0-8" source="7baba1c4bc27f4b0-9" target="7baba1c4bc27f4b0-8">
          <mxGeometry relative="1" as="geometry">
            <Array as="points">
              <mxPoint x="53" y="57" />
              <mxPoint x="53" y="57" />
            </Array>
          </mxGeometry>
        </mxCell>
        <mxCell id="7baba1c4bc27f4b0-9" value="" style="html=1;points=[];perimeter=orthogonalPerimeter;rounded=0;shadow=0;comic=0;labelBackgroundColor=none;strokeWidth=1;fontFamily=Verdana;fontSize=12;align=center;" vertex="1" parent="7baba1c4bc27f4b0-8">
          <mxGeometry x="45" y="100" width="10" height="88" as="geometry" />
        </mxCell>
        <mxCell id="7baba1c4bc27f4b0-19" value="" style="html=1;points=[];perimeter=orthogonalPerimeter;rounded=0;shadow=0;comic=0;labelBackgroundColor=none;strokeWidth=1;fontFamily=Verdana;fontSize=12;align=center;" vertex="1" parent="1">
          <mxGeometry x="725" y="213" width="10" height="112" as="geometry" />
        </mxCell>
        <mxCell id="7baba1c4bc27f4b0-21" value="Blog Post created successfully" style="html=1;verticalAlign=bottom;endArrow=open;dashed=1;endSize=8;labelBackgroundColor=none;fontFamily=Verdana;fontSize=12;edgeStyle=elbowEdgeStyle;elbow=vertical;" edge="1" parent="1" source="7baba1c4bc27f4b0-10" target="7baba1c4bc27f4b0-2">
          <mxGeometry x="0.4911" y="24" relative="1" as="geometry">
            <mxPoint x="593" y="260" as="targetPoint" />
            <Array as="points">
              <mxPoint x="698" y="260" />
            </Array>
            <mxPoint x="723" y="260" as="sourcePoint" />
            <mxPoint as="offset" />
          </mxGeometry>
        </mxCell>
        <mxCell id="7baba1c4bc27f4b0-22" value="" style="html=1;points=[];perimeter=orthogonalPerimeter;rounded=0;shadow=0;comic=0;labelBackgroundColor=none;strokeWidth=1;fontFamily=Verdana;fontSize=12;align=center;" vertex="1" parent="1">
          <mxGeometry x="585" y="597" width="10" height="140" as="geometry" />
        </mxCell>
        <mxCell id="7baba1c4bc27f4b0-25" value="" style="html=1;points=[];perimeter=orthogonalPerimeter;rounded=0;shadow=0;comic=0;labelBackgroundColor=none;strokeColor=#000000;strokeWidth=1;fillColor=#FFFFFF;fontFamily=Verdana;fontSize=12;fontColor=#000000;align=center;" vertex="1" parent="1">
          <mxGeometry x="1005" y="402" width="10" height="102" as="geometry" />
        </mxCell>
        <mxCell id="M-AJhfs6bhue7CbsX_gP-3" value="User" style="shape=umlActor;verticalLabelPosition=bottom;verticalAlign=top;html=1;outlineConnect=0;" vertex="1" parent="1">
          <mxGeometry x="30" y="115" width="30" height="60" as="geometry" />
        </mxCell>
        <mxCell id="M-AJhfs6bhue7CbsX_gP-6" value="Fill&lt;div&gt;Post&lt;/div&gt;" style="text;html=1;align=center;verticalAlign=middle;resizable=0;points=[];autosize=1;strokeColor=none;fillColor=none;" vertex="1" parent="1">
          <mxGeometry x="52" y="207" width="50" height="40" as="geometry" />
        </mxCell>
        <mxCell id="M-AJhfs6bhue7CbsX_gP-7" style="edgeStyle=orthogonalEdgeStyle;rounded=0;orthogonalLoop=1;jettySize=auto;html=1;" edge="1" parent="1" source="7baba1c4bc27f4b0-9">
          <mxGeometry relative="1" as="geometry">
            <mxPoint x="725" y="231" as="targetPoint" />
            <Array as="points">
              <mxPoint x="348" y="224" />
              <mxPoint x="348" y="231" />
            </Array>
          </mxGeometry>
        </mxCell>
        <mxCell id="M-AJhfs6bhue7CbsX_gP-11" value="Submit blog&amp;nbsp;" style="edgeLabel;html=1;align=center;verticalAlign=middle;resizable=0;points=[];" connectable="0" vertex="1" parent="M-AJhfs6bhue7CbsX_gP-7">
          <mxGeometry x="-0.0487" relative="1" as="geometry">
            <mxPoint x="-29" y="-13" as="offset" />
          </mxGeometry>
        </mxCell>
        <mxCell id="M-AJhfs6bhue7CbsX_gP-12" value="Post Data" style="text;html=1;align=center;verticalAlign=middle;resizable=0;points=[];autosize=1;strokeColor=none;fillColor=none;" vertex="1" parent="1">
          <mxGeometry x="479" y="210" width="71" height="26" as="geometry" />
        </mxCell>
        <mxCell id="M-AJhfs6bhue7CbsX_gP-15" value="Blog Post" style="shape=umlLifeline;perimeter=lifelinePerimeter;whiteSpace=wrap;html=1;container=1;collapsible=0;recursiveResize=0;outlineConnect=0;rounded=1;shadow=0;comic=0;labelBackgroundColor=none;strokeWidth=1;fontFamily=Verdana;fontSize=12;align=center;" vertex="1" parent="1">
          <mxGeometry x="1086" y="80" width="100" height="580" as="geometry" />
        </mxCell>
        <mxCell id="M-AJhfs6bhue7CbsX_gP-16" value="" style="html=1;points=[];perimeter=orthogonalPerimeter;rounded=0;shadow=0;comic=0;labelBackgroundColor=none;strokeWidth=1;fontFamily=Verdana;fontSize=12;align=center;" vertex="1" parent="M-AJhfs6bhue7CbsX_gP-15">
          <mxGeometry x="45" y="118" width="10" height="112" as="geometry" />
        </mxCell>
        <mxCell id="M-AJhfs6bhue7CbsX_gP-18" style="edgeStyle=orthogonalEdgeStyle;rounded=0;orthogonalLoop=1;jettySize=auto;html=1;" edge="1" parent="1" source="7baba1c4bc27f4b0-19">
          <mxGeometry relative="1" as="geometry">
            <mxPoint x="1136" y="252" as="targetPoint" />
            <Array as="points">
              <mxPoint x="1125" y="248" />
              <mxPoint x="1125" y="252" />
            </Array>
          </mxGeometry>
        </mxCell>
        <mxCell id="M-AJhfs6bhue7CbsX_gP-20" value="Create Blog Post Object" style="edgeLabel;html=1;align=center;verticalAlign=middle;resizable=0;points=[];" connectable="0" vertex="1" parent="M-AJhfs6bhue7CbsX_gP-18">
          <mxGeometry x="-0.0074" y="8" relative="1" as="geometry">
            <mxPoint as="offset" />
          </mxGeometry>
        </mxCell>
        <mxCell id="M-AJhfs6bhue7CbsX_gP-19" value="Return created Blog Post" style="html=1;verticalAlign=bottom;endArrow=open;dashed=1;endSize=8;labelBackgroundColor=none;fontFamily=Verdana;fontSize=12;edgeStyle=elbowEdgeStyle;elbow=vertical;" edge="1" parent="1" target="7baba1c4bc27f4b0-5">
          <mxGeometry x="-0.0974" y="20" relative="1" as="geometry">
            <mxPoint x="741" y="293" as="targetPoint" />
            <Array as="points" />
            <mxPoint x="1135" y="293" as="sourcePoint" />
            <mxPoint as="offset" />
          </mxGeometry>
        </mxCell>
        <mxCell id="M-AJhfs6bhue7CbsX_gP-21" value="" style="html=1;verticalAlign=bottom;endArrow=open;dashed=1;endSize=8;labelBackgroundColor=none;fontFamily=Verdana;fontSize=12;edgeStyle=elbowEdgeStyle;elbow=vertical;" edge="1" parent="1" target="7baba1c4bc27f4b0-10">
          <mxGeometry relative="1" as="geometry">
            <mxPoint x="290" y="260" as="targetPoint" />
            <Array as="points">
              <mxPoint x="668" y="260" />
            </Array>
            <mxPoint x="723" y="260" as="sourcePoint" />
          </mxGeometry>
        </mxCell>
        <mxCell id="7baba1c4bc27f4b0-10" value="" style="html=1;points=[];perimeter=orthogonalPerimeter;rounded=0;shadow=0;comic=0;labelBackgroundColor=none;strokeWidth=1;fontFamily=Verdana;fontSize=12;align=center;" vertex="1" parent="1">
          <mxGeometry x="285" y="234" width="10" height="61" as="geometry" />
        </mxCell>
        <mxCell id="M-AJhfs6bhue7CbsX_gP-22" value="" style="edgeStyle=orthogonalEdgeStyle;rounded=0;orthogonalLoop=1;jettySize=auto;html=1;entryX=0;entryY=0.33;entryDx=0;entryDy=0;entryPerimeter=0;" edge="1" parent="1" source="M-AJhfs6bhue7CbsX_gP-3" target="7baba1c4bc27f4b0-9">
          <mxGeometry relative="1" as="geometry">
            <mxPoint x="60" y="170" as="sourcePoint" />
            <mxPoint x="150" y="226" as="targetPoint" />
            <Array as="points" />
          </mxGeometry>
        </mxCell>
        <mxCell id="M-AJhfs6bhue7CbsX_gP-5" value="Blog&lt;div&gt;Form&lt;/div&gt;" style="text;html=1;align=center;verticalAlign=middle;resizable=0;points=[];autosize=1;strokeColor=none;fillColor=none;" vertex="1" parent="1">
          <mxGeometry x="81" y="207" width="50" height="40" as="geometry" />
        </mxCell>
        <mxCell id="M-AJhfs6bhue7CbsX_gP-24" value="" style="html=1;verticalAlign=bottom;endArrow=open;dashed=1;endSize=8;curved=0;rounded=0;exitX=0.2;exitY=0.721;exitDx=0;exitDy=0;exitPerimeter=0;" edge="1" parent="1" source="7baba1c4bc27f4b0-10">
          <mxGeometry x="1" y="-241" relative="1" as="geometry">
            <mxPoint x="533" y="338" as="sourcePoint" />
            <mxPoint x="47" y="288" as="targetPoint" />
            <mxPoint x="-239" y="212" as="offset" />
          </mxGeometry>
        </mxCell>
        <mxCell id="M-AJhfs6bhue7CbsX_gP-27" value="Display Success message" style="text;html=1;align=center;verticalAlign=middle;resizable=0;points=[];autosize=1;strokeColor=none;fillColor=none;" vertex="1" parent="1">
          <mxGeometry x="129" y="282" width="158" height="26" as="geometry" />
        </mxCell>
        <mxCell id="M-AJhfs6bhue7CbsX_gP-28" value="" style="endArrow=open;endFill=1;endSize=12;html=1;rounded=0;entryX=0.1;entryY=0.255;entryDx=0;entryDy=0;entryPerimeter=0;" edge="1" parent="1" target="7baba1c4bc27f4b0-13">
          <mxGeometry width="160" relative="1" as="geometry">
            <mxPoint x="42" y="403" as="sourcePoint" />
            <mxPoint x="573" y="338" as="targetPoint" />
          </mxGeometry>
        </mxCell>
        <mxCell id="M-AJhfs6bhue7CbsX_gP-29" value="Enter Email id" style="text;html=1;align=center;verticalAlign=middle;resizable=0;points=[];autosize=1;strokeColor=none;fillColor=none;" vertex="1" parent="1">
          <mxGeometry x="282" y="388" width="93" height="26" as="geometry" />
        </mxCell>
        <mxCell id="M-AJhfs6bhue7CbsX_gP-30" value="Display Password Updated successfully&amp;nbsp;" style="html=1;verticalAlign=bottom;endArrow=open;dashed=1;endSize=8;curved=0;rounded=0;exitX=0.2;exitY=0.725;exitDx=0;exitDy=0;exitPerimeter=0;" edge="1" parent="1" source="7baba1c4bc27f4b0-13">
          <mxGeometry relative="1" as="geometry">
            <mxPoint x="533" y="324" as="sourcePoint" />
            <mxPoint x="47" y="501" as="targetPoint" />
          </mxGeometry>
        </mxCell>
        <mxCell id="M-AJhfs6bhue7CbsX_gP-32" value="" style="endArrow=open;endFill=1;endSize=12;html=1;rounded=0;entryX=0.3;entryY=0.362;entryDx=0;entryDy=0;entryPerimeter=0;exitX=1;exitY=0.37;exitDx=0;exitDy=0;exitPerimeter=0;" edge="1" parent="1" source="7baba1c4bc27f4b0-13" target="7baba1c4bc27f4b0-28">
          <mxGeometry width="160" relative="1" as="geometry">
            <mxPoint x="413" y="524" as="sourcePoint" />
            <mxPoint x="573" y="524" as="targetPoint" />
          </mxGeometry>
        </mxCell>
        <mxCell id="M-AJhfs6bhue7CbsX_gP-33" value="Submit Email id" style="text;html=1;align=center;verticalAlign=middle;resizable=0;points=[];autosize=1;strokeColor=none;fillColor=none;" vertex="1" parent="1">
          <mxGeometry x="593" y="410" width="101" height="26" as="geometry" />
        </mxCell>
        <mxCell id="M-AJhfs6bhue7CbsX_gP-34" value="Password updated Successfully" style="html=1;verticalAlign=bottom;endArrow=open;dashed=1;endSize=8;curved=0;rounded=0;entryX=0.7;entryY=0.635;entryDx=0;entryDy=0;entryPerimeter=0;" edge="1" parent="1" target="7baba1c4bc27f4b0-13">
          <mxGeometry relative="1" as="geometry">
            <mxPoint x="864" y="486" as="sourcePoint" />
            <mxPoint x="453" y="524" as="targetPoint" />
          </mxGeometry>
        </mxCell>
        <mxCell id="M-AJhfs6bhue7CbsX_gP-36" value="" style="endArrow=open;endFill=1;endSize=12;html=1;rounded=0;entryX=0.6;entryY=0.49;entryDx=0;entryDy=0;entryPerimeter=0;exitX=0.6;exitY=0.447;exitDx=0;exitDy=0;exitPerimeter=0;" edge="1" parent="1" source="7baba1c4bc27f4b0-28" target="7baba1c4bc27f4b0-25">
          <mxGeometry width="160" relative="1" as="geometry">
            <mxPoint x="413" y="524" as="sourcePoint" />
            <mxPoint x="573" y="524" as="targetPoint" />
          </mxGeometry>
        </mxCell>
        <mxCell id="M-AJhfs6bhue7CbsX_gP-38" value="Return New Password" style="html=1;verticalAlign=bottom;endArrow=open;dashed=1;endSize=8;curved=0;rounded=0;exitX=0.2;exitY=0.627;exitDx=0;exitDy=0;exitPerimeter=0;" edge="1" parent="1" source="7baba1c4bc27f4b0-25" target="7baba1c4bc27f4b0-6">
          <mxGeometry x="-0.0691" y="17" relative="1" as="geometry">
            <mxPoint x="533" y="524" as="sourcePoint" />
            <mxPoint x="453" y="524" as="targetPoint" />
            <mxPoint as="offset" />
          </mxGeometry>
        </mxCell>
        <mxCell id="M-AJhfs6bhue7CbsX_gP-39" value="" style="endArrow=open;endFill=1;endSize=12;html=1;rounded=0;entryX=0.3;entryY=0.15;entryDx=0;entryDy=0;entryPerimeter=0;" edge="1" parent="1" target="7baba1c4bc27f4b0-22">
          <mxGeometry width="160" relative="1" as="geometry">
            <mxPoint x="47" y="618" as="sourcePoint" />
            <mxPoint x="573" y="524" as="targetPoint" />
          </mxGeometry>
        </mxCell>
        <mxCell id="M-AJhfs6bhue7CbsX_gP-40" value="Enter original password,New password" style="text;html=1;align=center;verticalAlign=middle;resizable=0;points=[];autosize=1;strokeColor=none;fillColor=none;" vertex="1" parent="1">
          <mxGeometry x="254" y="591" width="225" height="26" as="geometry" />
        </mxCell>
        <mxCell id="M-AJhfs6bhue7CbsX_gP-42" value="" style="endArrow=open;endFill=1;endSize=12;html=1;rounded=0;" edge="1" parent="1" target="7baba1c4bc27f4b0-6">
          <mxGeometry width="160" relative="1" as="geometry">
            <mxPoint x="593" y="637" as="sourcePoint" />
            <mxPoint x="573" y="634" as="targetPoint" />
          </mxGeometry>
        </mxCell>
        <mxCell id="M-AJhfs6bhue7CbsX_gP-43" value="Submit original Password , New password" style="text;html=1;align=center;verticalAlign=middle;resizable=0;points=[];autosize=1;strokeColor=none;fillColor=none;" vertex="1" parent="1">
          <mxGeometry x="592" y="615" width="242" height="26" as="geometry" />
        </mxCell>
        <mxCell id="M-AJhfs6bhue7CbsX_gP-44" value="Password Updated Successfully" style="html=1;verticalAlign=bottom;endArrow=open;dashed=1;endSize=8;curved=0;rounded=0;exitX=0.4;exitY=0.684;exitDx=0;exitDy=0;exitPerimeter=0;" edge="1" parent="1" target="7baba1c4bc27f4b0-4">
          <mxGeometry relative="1" as="geometry">
            <mxPoint x="869" y="691.9680000000001" as="sourcePoint" />
            <mxPoint x="453" y="634" as="targetPoint" />
          </mxGeometry>
        </mxCell>
        <mxCell id="M-AJhfs6bhue7CbsX_gP-46" value="Update Password" style="text;html=1;align=center;verticalAlign=middle;resizable=0;points=[];autosize=1;strokeColor=none;fillColor=none;" vertex="1" parent="1">
          <mxGeometry x="875" y="633" width="113" height="26" as="geometry" />
        </mxCell>
        <mxCell id="M-AJhfs6bhue7CbsX_gP-47" value="" style="html=1;points=[];perimeter=orthogonalPerimeter;rounded=0;shadow=0;comic=0;labelBackgroundColor=none;strokeColor=#000000;strokeWidth=1;fillColor=#FFFFFF;fontFamily=Verdana;fontSize=12;fontColor=#000000;align=center;" vertex="1" parent="1">
          <mxGeometry x="1005" y="610" width="10" height="102" as="geometry" />
        </mxCell>
        <mxCell id="M-AJhfs6bhue7CbsX_gP-48" value="" style="endArrow=open;endFill=1;endSize=12;html=1;rounded=0;entryX=0.6;entryY=0.49;entryDx=0;entryDy=0;entryPerimeter=0;exitX=0.6;exitY=0.447;exitDx=0;exitDy=0;exitPerimeter=0;" edge="1" parent="1" source="M-AJhfs6bhue7CbsX_gP-45" target="M-AJhfs6bhue7CbsX_gP-47">
          <mxGeometry width="160" relative="1" as="geometry">
            <mxPoint x="413" y="732" as="sourcePoint" />
            <mxPoint x="573" y="732" as="targetPoint" />
          </mxGeometry>
        </mxCell>
        <mxCell id="M-AJhfs6bhue7CbsX_gP-49" value="Return New Password" style="html=1;verticalAlign=bottom;endArrow=open;dashed=1;endSize=8;curved=0;rounded=0;exitX=0.2;exitY=0.627;exitDx=0;exitDy=0;exitPerimeter=0;" edge="1" parent="1" source="M-AJhfs6bhue7CbsX_gP-47">
          <mxGeometry x="-0.0691" y="17" relative="1" as="geometry">
            <mxPoint x="533" y="732" as="sourcePoint" />
            <mxPoint x="870" y="674" as="targetPoint" />
            <mxPoint as="offset" />
          </mxGeometry>
        </mxCell>
        <mxCell id="M-AJhfs6bhue7CbsX_gP-50" value="Display Password Updated Successfully" style="html=1;verticalAlign=bottom;endArrow=open;dashed=1;endSize=8;curved=0;rounded=0;exitX=0.6;exitY=0.914;exitDx=0;exitDy=0;exitPerimeter=0;" edge="1" parent="1" source="7baba1c4bc27f4b0-22">
          <mxGeometry x="-0.0002" relative="1" as="geometry">
            <mxPoint x="533" y="634" as="sourcePoint" />
            <mxPoint x="42" y="715" as="targetPoint" />
            <mxPoint as="offset" />
          </mxGeometry>
        </mxCell>
        <mxCell id="M-AJhfs6bhue7CbsX_gP-53" value="&lt;span style=&quot;font-family: Verdana;&quot;&gt;:BlogPost formUI&lt;/span&gt;" style="shape=umlBoundary;whiteSpace=wrap;html=1;" vertex="1" parent="1">
          <mxGeometry x="108" y="11" width="74" height="55" as="geometry" />
        </mxCell>
        <mxCell id="M-AJhfs6bhue7CbsX_gP-54" value=":&lt;span style=&quot;font-family: Verdana;&quot;&gt;BlogPost&lt;/span&gt;&lt;div&gt;&lt;span style=&quot;font-family: Verdana;&quot;&gt;Display pageUI&amp;nbsp;&lt;/span&gt;&lt;/div&gt;" style="shape=umlBoundary;whiteSpace=wrap;html=1;" vertex="1" parent="1">
          <mxGeometry x="244" y="11" width="95" height="55" as="geometry" />
        </mxCell>
        <mxCell id="M-AJhfs6bhue7CbsX_gP-55" value=":&lt;span style=&quot;font-family: Verdana;&quot;&gt;Change Password FormUI&lt;/span&gt;" style="shape=umlBoundary;whiteSpace=wrap;html=1;" vertex="1" parent="1">
          <mxGeometry x="536" y="3" width="75" height="60" as="geometry" />
        </mxCell>
        <mxCell id="M-AJhfs6bhue7CbsX_gP-56" value=":&lt;span style=&quot;font-family: Verdana;&quot;&gt;Password&lt;/span&gt;&lt;div&gt;&lt;span style=&quot;font-family: Verdana;&quot;&gt;Reset FormUI&lt;/span&gt;&lt;/div&gt;" style="shape=umlBoundary;whiteSpace=wrap;html=1;" vertex="1" parent="1">
          <mxGeometry x="398" y="8" width="88" height="59" as="geometry" />
        </mxCell>
        <mxCell id="M-AJhfs6bhue7CbsX_gP-57" value="&lt;span style=&quot;font-family: Verdana;&quot;&gt;:Blog Post&lt;/span&gt;&lt;div style=&quot;font-family: Verdana;&quot;&gt;Controller&lt;/div&gt;" style="ellipse;shape=umlControl;whiteSpace=wrap;html=1;" vertex="1" parent="1">
          <mxGeometry x="689" y="-3" width="64" height="66" as="geometry" />
        </mxCell>
        <mxCell id="M-AJhfs6bhue7CbsX_gP-58" value="&lt;span style=&quot;font-family: Verdana;&quot;&gt;:Password Controller&lt;/span&gt;" style="ellipse;shape=umlControl;whiteSpace=wrap;html=1;" vertex="1" parent="1">
          <mxGeometry x="836" width="64" height="66" as="geometry" />
        </mxCell>
        <mxCell id="M-AJhfs6bhue7CbsX_gP-60" value="&lt;span style=&quot;font-family: Verdana;&quot;&gt;User&lt;/span&gt;" style="ellipse;shape=umlEntity;whiteSpace=wrap;html=1;" vertex="1" parent="1">
          <mxGeometry x="972" y="2.5" width="67" height="66" as="geometry" />
        </mxCell>
        <mxCell id="M-AJhfs6bhue7CbsX_gP-61" value="&lt;span style=&quot;font-family: Verdana;&quot;&gt;Blog Post&lt;/span&gt;" style="ellipse;shape=umlEntity;whiteSpace=wrap;html=1;" vertex="1" parent="1">
          <mxGeometry x="1102.5" y="5.5" width="67" height="66" as="geometry" />
        </mxCell>
        <mxCell id="M-AJhfs6bhue7CbsX_gP-64" value="" style="endArrow=none;dashed=1;html=1;dashPattern=1 3;strokeWidth=2;rounded=0;" edge="1" parent="1">
          <mxGeometry width="50" height="50" relative="1" as="geometry">
            <mxPoint x="43" y="839" as="sourcePoint" />
            <mxPoint x="46" y="103" as="targetPoint" />
          </mxGeometry>
        </mxCell>
      </root>
    </mxGraphModel>
  </diagram>
</mxfile>
